
<?xml version="1.0" encoding="UTF-8"?>
<!DOCTYPE svg PUBLIC "-//W3C//DTD SVG 1.1//EN" "http://www.w3.org/Graphics/SVG/1.1/DTD/svg11.dtd">
<svg xmlns="http://www.w3.org/2000/svg" version="1.1" width="545px" height="517px" style="shape-rendering:geometricPrecision; text-rendering:geometricPrecision; image-rendering:optimizeQuality; fill-rule:evenodd; clip-rule:evenodd" xmlns:xlink="http://www.w3.org/1999/xlink">
<g><path style="opacity:1" fill="#e3e5e5" d="M -0.5,-0.5 C 181.167,-0.5 362.833,-0.5 544.5,-0.5C 544.5,171.833 544.5,344.167 544.5,516.5C 362.833,516.5 181.167,516.5 -0.5,516.5C -0.5,344.167 -0.5,171.833 -0.5,-0.5 Z"/></g>
<g><path style="opacity:1" fill="#acb4b6" d="M 266.5,127.5 C 309.737,127.271 338.903,147.271 354,187.5C 362.722,227.143 350.555,258.643 317.5,282C 292.301,295.381 266.301,297.047 239.5,287C 201.359,265.881 185.859,233.714 193,190.5C 204.524,154.129 229.024,133.129 266.5,127.5 Z"/></g>
<g><path style="opacity:1" fill="#b2b7b8" d="M 361.5,322.5 C 306.458,322.171 251.458,322.504 196.5,323.5C 196.483,322.606 196.149,321.606 195.5,320.5C 247.429,319.338 299.429,319.172 351.5,320C 355.038,320.535 358.372,321.368 361.5,322.5 Z"/></g>
<g><path style="opacity:1" fill="#acb4b6" d="M 195.5,320.5 C 196.149,321.606 196.483,322.606 196.5,323.5C 251.458,322.504 306.458,322.171 361.5,322.5C 397.198,330.364 420.698,351.697 432,386.5C 435.033,396.951 436.2,407.618 435.5,418.5C 327.833,418.5 220.167,418.5 112.5,418.5C 112.503,371.967 134.17,340.467 177.5,324C 183.379,322.093 189.379,320.926 195.5,320.5 Z"/></g>
</svg>
